<svg width="77" height="102" viewBox="0 0 77 102" fill="none" xmlns="http://www.w3.org/2000/svg">
<rect x="9.60864" width="67.2609" height="92.7316" fill="white"/>
<rect x="12.6086" y="3" width="61.2609" height="86.7316" stroke="black" stroke-opacity="0.2" stroke-width="6"/>
<line x1="31.2283" y1="8.20154" x2="55.25" y2="8.20154" stroke="black" stroke-opacity="0.2" stroke-width="8"/>
<line x1="19.2175" y1="18.9628" x2="67.261" y2="18.9628" stroke="black" stroke-opacity="0.2" stroke-width="6"/>
<line x1="19.2175" y1="28.7239" x2="67.261" y2="28.7239" stroke="black" stroke-opacity="0.2" stroke-width="6"/>
<line x1="19.2175" y1="38.4852" x2="67.261" y2="38.4852" stroke="black" stroke-opacity="0.2" stroke-width="6"/>
<line x1="19.2175" y1="48.2464" x2="67.261" y2="48.2464" stroke="black" stroke-opacity="0.2" stroke-width="6"/>
<line x1="19.2175" y1="58.0076" x2="67.261" y2="58.0076" stroke="black" stroke-opacity="0.2" stroke-width="6"/>
<line x1="19.2175" y1="67.7688" x2="67.261" y2="67.7688" stroke="black" stroke-opacity="0.2" stroke-width="6"/>
<line x1="19.2175" y1="77.53" x2="43.2393" y2="77.53" stroke="black" stroke-opacity="0.2" stroke-width="6"/>
<rect y="9.26843" width="67.2609" height="92.7316" fill="white"/>
<rect x="3" y="12.2684" width="61.2609" height="86.7316" stroke="black" stroke-opacity="0.2" stroke-width="6"/>
<line x1="21.6196" y1="17.47" x2="45.6414" y2="17.47" stroke="black" stroke-opacity="0.2" stroke-width="8"/>
<line x1="9.60864" y1="28.2312" x2="57.6521" y2="28.2312" stroke="black" stroke-opacity="0.2" stroke-width="6"/>
<line x1="9.60864" y1="37.9924" x2="57.6521" y2="37.9924" stroke="black" stroke-opacity="0.2" stroke-width="6"/>
<line x1="9.60864" y1="47.7536" x2="57.6521" y2="47.7536" stroke="black" stroke-opacity="0.2" stroke-width="6"/>
<line x1="9.60864" y1="57.5148" x2="57.6521" y2="57.5148" stroke="black" stroke-opacity="0.2" stroke-width="6"/>
<line x1="9.60864" y1="67.276" x2="57.6521" y2="67.276" stroke="black" stroke-opacity="0.2" stroke-width="6"/>
<line x1="9.60864" y1="77.0373" x2="57.6521" y2="77.0373" stroke="black" stroke-opacity="0.2" stroke-width="6"/>
<line x1="9.60864" y1="86.7985" x2="33.6304" y2="86.7985" stroke="black" stroke-opacity="0.2" stroke-width="6"/>
</svg>
