<svg width="112" height="112" viewBox="0 0 112 112" fill="none" xmlns="http://www.w3.org/2000/svg">
<path d="M98 23.3333C92.82 21.7 87.1266 21 81.6666 21C72.5666 21 62.7666 22.8667 56 28C49.2333 22.8667 39.4333 21 30.3333 21C21.2333 21 11.4333 22.8667 4.66663 28V96.3667C4.66663 97.5333 5.83329 98.7 6.99996 98.7C7.46663 98.7 7.69996 98.4667 8.16663 98.4667C14.4666 95.4333 23.5666 93.3333 30.3333 93.3333C39.4333 93.3333 49.2333 95.2 56 100.333C62.3 96.3667 73.7333 93.3333 81.6666 93.3333C89.3666 93.3333 97.3 94.7333 103.833 98.2333C104.3 98.4667 104.533 98.4667 105 98.4667C106.167 98.4667 107.333 97.3 107.333 96.1333V28C104.533 25.9 101.5 24.5 98 23.3333ZM98 86.3333C92.8666 84.7 87.2666 84 81.6666 84C73.7333 84 62.3 87.0333 56 91V37.3333C62.3 33.3667 73.7333 30.3333 81.6666 30.3333C87.2666 30.3333 92.8666 31.0333 98 32.6667V86.3333Z" fill="white"/>
<path d="M81.6665 49C85.7732 49 89.7398 49.42 93.3332 50.2133V43.12C89.6465 42.42 85.6798 42 81.6665 42C73.7332 42 66.5465 43.3533 60.6665 45.8733V53.62C65.9398 50.6333 73.2665 49 81.6665 49Z" fill="white"/>
<path d="M60.6665 58.2867V66.0333C65.9398 63.0467 73.2665 61.4133 81.6665 61.4133C85.7732 61.4133 89.7398 61.8333 93.3332 62.6267V55.5333C89.6465 54.8333 85.6798 54.4133 81.6665 54.4133C73.7332 54.4133 66.5465 55.8133 60.6665 58.2867Z" fill="white"/>
<path d="M81.6665 66.8733C73.7332 66.8733 66.5465 68.2267 60.6665 70.7467V78.4933C65.9398 75.5067 73.2665 73.8733 81.6665 73.8733C85.7732 73.8733 89.7398 74.2933 93.3332 75.0867V67.9933C89.6465 67.2467 85.6798 66.8733 81.6665 66.8733Z" fill="white"/>
<path d="M17.4125 52.7117V59.3617L29.0499 65.7125L40.6875 59.3617V52.7117L29.0499 59.0625L17.4125 52.7117ZM29.0499 35.7875L10.7625 45.7625L29.0499 55.7375L44.0125 47.5746V59.0625H47.3374V45.7625L29.0499 35.7875Z" fill="#424242"/>
</svg>
