<svg width="112" height="112" viewBox="0 0 112 112" fill="none" xmlns="http://www.w3.org/2000/svg">
<path d="M97.9998 23.3333C92.8198 21.7 87.1265 21 81.6665 21C72.5665 21 62.7665 22.8667 55.9998 28C49.2332 22.8667 39.4332 21 30.3332 21C21.2332 21 11.4332 22.8667 4.6665 28V96.3667C4.6665 97.5333 5.83317 98.7 6.99984 98.7C7.4665 98.7 7.69984 98.4667 8.1665 98.4667C14.4665 95.4333 23.5665 93.3333 30.3332 93.3333C39.4332 93.3333 49.2332 95.2 55.9998 100.333C62.2998 96.3667 73.7332 93.3333 81.6665 93.3333C89.3665 93.3333 97.2998 94.7333 103.833 98.2333C104.3 98.4667 104.533 98.4667 105 98.4667C106.167 98.4667 107.333 97.3 107.333 96.1333V28C104.533 25.9 101.5 24.5 97.9998 23.3333ZM97.9998 86.3333C92.8665 84.7 87.2665 84 81.6665 84C73.7332 84 62.2998 87.0333 55.9998 91V37.3333C62.2998 33.3667 73.7332 30.3333 81.6665 30.3333C87.2665 30.3333 92.8665 31.0333 97.9998 32.6667V86.3333Z" fill="#212121"/>
<path d="M81.6665 49C85.7732 49 89.7398 49.42 93.3332 50.2133V43.12C89.6465 42.42 85.6798 42 81.6665 42C73.7332 42 66.5465 43.3533 60.6665 45.8733V53.62C65.9398 50.6333 73.2665 49 81.6665 49Z" fill="#212121"/>
<path d="M60.6665 58.2867V66.0333C65.9398 63.0467 73.2665 61.4133 81.6665 61.4133C85.7732 61.4133 89.7398 61.8333 93.3332 62.6267V55.5333C89.6465 54.8333 85.6798 54.4133 81.6665 54.4133C73.7332 54.4133 66.5465 55.8133 60.6665 58.2867Z" fill="#212121"/>
<path d="M81.6665 66.8733C73.7332 66.8733 66.5465 68.2267 60.6665 70.7467V78.4933C65.9398 75.5067 73.2665 73.8733 81.6665 73.8733C85.7732 73.8733 89.7398 74.2933 93.3332 75.0867V67.9933C89.6465 67.2467 85.6798 66.8733 81.6665 66.8733Z" fill="#212121"/>
<path d="M17.4127 52.7117V59.3617L29.0502 65.7125L40.6877 59.3617V52.7117L29.0502 59.0625L17.4127 52.7117ZM29.0502 35.7875L10.7627 45.7625L29.0502 55.7375L44.0127 47.5746V59.0625H47.3377V45.7625L29.0502 35.7875Z" fill="#EFEFEF"/>
</svg>
